<svg width="117" height="23" viewBox="0 0 117 23" fill="none" xmlns="http://www.w3.org/2000/svg">
<path d="M10.144 0.345251H14.24L16.832 7.86525L19.456 0.345251H23.52L19.616 10.6813L22.496 17.9132L28.928 0.28125H33.728L24.64 23.0013H20.832L16.832 13.4653L12.864 23.0013H9.056L0 0.28125H4.736L11.2 17.9132L14.016 10.6813L10.144 0.345251Z" fill="#252222"/>
<path d="M40.3565 0.28125H44.8365L53.1885 23.0013H48.6445L46.5325 17.3373H38.5965L36.5165 23.0013H31.9725L40.3565 0.28125ZM45.7325 14.2333L42.5965 4.85725L39.3325 14.2333H45.7325Z" fill="#252222"/>
<path d="M61.8565 0.28125H66.3365L74.6885 23.0013H70.1445L68.0325 17.3373H60.0965L58.0165 23.0013H53.4725L61.8565 0.28125ZM67.2325 14.2333L64.0965 4.85725L60.8325 14.2333H67.2325Z" fill="#252222"/>
<path d="M79.5485 0.28125L85.1805 8.66525L90.7805 0.28125H95.5805L87.7085 11.8013L95.3245 23.0013H90.5245L85.1805 14.9373L79.8045 23.0013H74.9725L82.5885 11.8013L74.7165 0.28125H79.5485Z" fill="#252222"/>
<path d="M100.236 0.28125L105.868 8.66525L111.468 0.28125H116.268L108.396 11.8013L116.012 23.0013H111.212L105.868 14.9373L100.492 23.0013H95.66L103.276 11.8013L95.404 0.28125H100.236Z" fill="#252222"/>
</svg>
