<svg width="33" height="32" viewBox="0 0 33 32" fill="none" xmlns="http://www.w3.org/2000/svg">
<g clip-path="url(#clip0_127_507)">
<circle cx="16.5" cy="16" r="15.5" fill="#E4E4E4" stroke="#4B4B4B"/>
<path d="M16.252 21.192C15.4307 21.192 14.716 21.0427 14.108 20.744C13.5 20.4453 13.0307 20.0293 12.7 19.496C12.3693 18.9627 12.204 18.344 12.204 17.64H13.612C13.612 18.0773 13.7133 18.4827 13.916 18.856C14.1187 19.2187 14.412 19.512 14.796 19.736C15.1907 19.9493 15.676 20.056 16.252 20.056C17.0093 20.056 17.596 19.8747 18.012 19.512C18.428 19.1493 18.636 18.696 18.636 18.152C18.636 17.704 18.54 17.3467 18.348 17.08C18.156 16.8027 17.8947 16.5787 17.564 16.408C17.244 16.2373 16.8707 16.088 16.444 15.96C16.028 15.832 15.5907 15.688 15.132 15.528C14.268 15.2293 13.628 14.8613 13.212 14.424C12.796 13.976 12.588 13.3947 12.588 12.68C12.5773 12.0827 12.716 11.5547 13.004 11.096C13.292 10.6267 13.6973 10.264 14.22 10.008C14.7533 9.74133 15.3827 9.608 16.108 9.608C16.8227 9.608 17.4413 9.74133 17.964 10.008C18.4973 10.2747 18.908 10.6427 19.196 11.112C19.4947 11.5813 19.6493 12.1147 19.66 12.712H18.252C18.252 12.4027 18.172 12.0987 18.012 11.8C17.852 11.4907 17.6067 11.24 17.276 11.048C16.956 10.856 16.5507 10.76 16.06 10.76C15.452 10.7493 14.9507 10.904 14.556 11.224C14.172 11.544 13.98 11.9867 13.98 12.552C13.98 13.032 14.1133 13.4 14.38 13.656C14.6573 13.912 15.0413 14.1253 15.532 14.296C16.0227 14.456 16.588 14.6427 17.228 14.856C17.7613 15.048 18.2413 15.272 18.668 15.528C19.0947 15.784 19.4253 16.1147 19.66 16.52C19.9053 16.9253 20.028 17.4427 20.028 18.072C20.028 18.6053 19.8893 19.112 19.612 19.592C19.3347 20.0613 18.9133 20.4453 18.348 20.744C17.7933 21.0427 17.0947 21.192 16.252 21.192Z" fill="#4B4B4B"/>
</g>
<defs>
<clipPath id="clip0_127_507">
<rect width="32" height="32" fill="white" transform="translate(0.5)"/>
</clipPath>
</defs>
</svg>
