<svg width="17" height="17" viewBox="0 0 17 17" fill="none" xmlns="http://www.w3.org/2000/svg">
<g clip-path="url(#clip0_129_64)">
<g clip-path="url(#clip1_129_64)">
<path d="M13.5625 3.4375H12.1187C11.9592 2.6616 11.537 1.96443 10.9234 1.46349C10.3097 0.962562 9.54214 0.6885 8.75 0.6875H3.9375C3.02615 0.688592 2.15245 1.05111 1.50803 1.69553C0.863606 2.33995 0.501092 3.21365 0.5 4.125L0.5 10.3125C0.501728 10.9282 0.710057 11.5256 1.09162 12.0089C1.47318 12.4922 2.00589 12.8334 2.60444 12.9779C2.53965 13.322 2.55072 13.6761 2.63688 14.0154C2.72304 14.3547 2.88221 14.6712 3.10329 14.9427C3.32436 15.2141 3.60201 15.4341 3.91687 15.5872C4.23172 15.7403 4.57619 15.8228 4.92624 15.8291C5.27629 15.8353 5.62349 15.7651 5.9436 15.6233C6.26371 15.4815 6.54902 15.2716 6.77963 15.0082C7.01024 14.7448 7.18059 14.4342 7.27879 14.0981C7.37699 13.7621 7.40067 13.4087 7.34819 13.0625H10.1546C10.1369 13.1763 10.1275 13.2911 10.1264 13.4063C10.1264 14.0444 10.3799 14.6565 10.8311 15.1077C11.2824 15.559 11.8944 15.8125 12.5326 15.8125C13.1708 15.8125 13.7828 15.559 14.2341 15.1077C14.6854 14.6565 14.9389 14.0444 14.9389 13.4063C14.9381 13.2625 14.9241 13.1191 14.8969 12.9779C15.4952 12.8331 16.0276 12.4918 16.4089 12.0085C16.7902 11.5253 16.9983 10.9281 17 10.3125V6.875C16.9989 5.96365 16.6364 5.08995 15.992 4.44553C15.3476 3.80111 14.4738 3.43859 13.5625 3.4375ZM15.625 6.875V7.5625H12.1875V4.8125H13.5625C14.1095 4.8125 14.6341 5.0298 15.0209 5.41659C15.4077 5.80339 15.625 6.32799 15.625 6.875ZM1.875 10.3125V4.125C1.875 3.57799 2.0923 3.05339 2.47909 2.66659C2.86589 2.2798 3.39049 2.0625 3.9375 2.0625H8.75C9.29701 2.0625 9.82161 2.2798 10.2084 2.66659C10.5952 3.05339 10.8125 3.57799 10.8125 4.125V11.6875H3.25C2.88533 11.6875 2.53559 11.5426 2.27773 11.2848C2.01987 11.0269 1.875 10.6772 1.875 10.3125ZM6 13.4063C6 13.6798 5.89135 13.9421 5.69795 14.1355C5.50456 14.3289 5.24225 14.4375 4.96875 14.4375C4.69525 14.4375 4.43294 14.3289 4.23955 14.1355C4.04615 13.9421 3.9375 13.6798 3.9375 13.4063C3.93792 13.2888 3.95958 13.1723 4.00144 13.0625H5.93606C5.97792 13.1723 5.99958 13.2888 6 13.4063ZM12.5312 14.4375C12.2577 14.4375 11.9954 14.3289 11.802 14.1355C11.6087 13.9421 11.5 13.6798 11.5 13.4063C11.5003 13.2887 11.522 13.1723 11.5639 13.0625H13.4986C13.5405 13.1723 13.5622 13.2887 13.5625 13.4063C13.5625 13.6798 13.4538 13.9421 13.2605 14.1355C13.0671 14.3289 12.8048 14.4375 12.5312 14.4375ZM14.25 11.6875H12.1875V8.9375H15.625V10.3125C15.625 10.6772 15.4801 11.0269 15.2223 11.2848C14.9644 11.5426 14.6147 11.6875 14.25 11.6875Z" fill="#4B4B4B"/>
</g>
</g>
<defs>
<clipPath id="clip0_129_64">
<rect width="16.5" height="16.5" fill="white" transform="translate(0.5)"/>
</clipPath>
<clipPath id="clip1_129_64">
<rect width="16.5" height="16.5" fill="white" transform="translate(0.5)"/>
</clipPath>
</defs>
</svg>
